<?xml version="1.0" encoding="utf-8"?>
<!-- Generator: Adobe Illustrator 23.0.1, SVG Export Plug-In . SVG Version: 6.00 Build 0)  -->
<svg version="1.1" id="Layer_1" xmlns="http://www.w3.org/2000/svg" xmlns:xlink="http://www.w3.org/1999/xlink" x="0px" y="0px"
	 viewBox="0 0 620 300" style="enable-background:new 0 0 620 300;" xml:space="preserve">
<style type="text/css">
	.st0{fill:#231F20;}
</style>
<path class="st0" d="M582.77,208.9c-0.87-2.34-2.1-4.38-3.68-6.14c-1.58-1.75-3.45-3.12-5.61-4.11c-2.16-0.99-4.53-1.48-7.11-1.48
	c-2.58,0-4.99,0.52-7.23,1.55c-2.24,1.03-4.2,2.45-5.86,4.25c-1.66,1.8-2.97,3.89-3.93,6.27c-0.96,2.38-1.43,4.92-1.43,7.62
	c0,2.7,0.44,5.19,1.31,7.48c0.87,2.29,2.1,4.32,3.68,6.07c1.58,1.75,3.45,3.12,5.61,4.11c2.16,0.99,4.53,1.48,7.11,1.48
	c2.58,0,4.99-0.52,7.23-1.55c2.24-1.04,4.2-2.45,5.86-4.25c1.66-1.8,2.97-3.86,3.93-6.2c0.96-2.34,1.43-4.85,1.43-7.55
	S583.64,211.24,582.77,208.9 M579.28,51.82c-3.2-3.6-7.5-5.39-12.9-5.39c-5.4,0-9.83,1.87-13.28,5.6
	c-3.45,3.73-5.17,9.01-5.17,15.84c0,6.56,0.37,12.74,1.12,18.54c0.75,5.8,1.68,11.42,2.8,16.85c1.12,5.44,2.33,10.77,3.62,15.98
	c1.29,5.21,2.49,10.5,3.61,15.84c1.12,5.35,2.06,10.92,2.8,16.72c0.75,5.8,1.12,11.93,1.12,18.41c0,2.34,0.41,3.8,1.25,4.38
	c0.83,0.59,1.54,0.88,2.12,0.88c0.58,0,1.29-0.27,2.12-0.81c0.83-0.54,1.25-2.02,1.25-4.45c0-6.47,0.35-12.61,1.06-18.41
	c0.71-5.8,1.6-11.39,2.68-16.79c1.08-5.39,2.22-10.7,3.43-15.91c1.2-5.21,2.35-10.54,3.43-15.98c1.08-5.44,1.97-11.08,2.68-16.92
	c0.71-5.84,1.06-12.09,1.06-18.74C584.08,60.63,582.48,55.41,579.28,51.82 M541.3,226.97c-1.37-0.81-2.99-1.86-4.86-3.17
	c-1.87-1.3-3.89-2.83-6.05-4.58c-2.16-1.75-4.28-3.66-6.36-5.73c-1.41-1.44-3.47-3.8-6.17-7.08c-2.7-3.28-5.69-7.01-8.98-11.19
	c-3.28-4.18-6.67-8.54-10.16-13.08c-3.49-4.54-6.73-8.83-9.72-12.88c-2.99-4.05-5.55-7.55-7.67-10.52
	c-2.12-2.97-3.47-4.94-4.05-5.93c-0.58-0.9-0.62-1.93-0.12-3.1c0.08-0.27,0.7-1.33,1.87-3.17c1.16-1.84,2.49-3.89,3.99-6.14
	c1.5-2.25,2.95-4.4,4.36-6.47c1.41-2.07,2.45-3.46,3.12-4.18c2.33-2.7,4.65-4.97,6.98-6.81c2.33-1.84,4.49-3.35,6.48-4.52
	c1.99-1.17,3.74-2.02,5.24-2.56c1.5-0.54,2.58-0.85,3.24-0.94c0.66-0.09,1.14-0.34,1.43-0.74c0.29-0.4,0.44-0.85,0.44-1.35
	c0-0.49-0.19-0.92-0.56-1.28c-0.37-0.36-0.89-0.54-1.56-0.54h-35.78c-0.67,0-1.18,0.18-1.56,0.54c-0.37,0.36-0.6,0.76-0.69,1.21
	c-0.08,0.45,0.02,0.9,0.31,1.35c0.29,0.45,0.77,0.72,1.43,0.81c0.66,0.18,1.64,0.4,2.93,0.67c1.29,0.27,2.43,0.85,3.43,1.75
	c1,0.9,1.56,2.2,1.68,3.91c0.12,1.71-0.6,4-2.18,6.88c-1.33,2.34-3.05,5.28-5.17,8.83c-2.12,3.55-4.39,7.19-6.79,10.92
	c-2.41,3.73-4.82,7.3-7.23,10.72c-2.41,3.42-4.49,6.2-6.23,8.36c-1.25,1.62-2.95,2.43-5.11,2.43c-1.66,0-2.83-0.61-3.49-1.82
	c-0.67-1.21-1-2.94-1-5.19V32.4c0-1.26-0.4-1.93-1.18-2.02c-0.79-0.09-1.56,0.13-2.31,0.67c-2.83,2.07-6.03,4.11-9.6,6.13
	c-3.58,2.02-7.27,3.91-11.1,5.66c-3.82,1.75-7.63,3.33-11.41,4.72c-3.78,1.39-7.29,2.49-10.53,3.3c-1.25,0.36-1.85,1.01-1.81,1.96
	c0.04,0.94,0.6,1.55,1.68,1.82c0.25,0.09,0.93,0.27,2.06,0.54c1.12,0.27,2.35,0.58,3.68,0.94c1.33,0.36,2.51,0.67,3.55,0.94
	c1.04,0.27,1.64,0.4,1.81,0.4c1,0.27,1.5,0.99,1.5,2.16v151.15c0,3.69-0.73,6.65-2.18,8.9c-1.45,2.25-3.12,4.02-4.99,5.33
	c-1.87,1.3-3.7,2.23-5.48,2.76c-1.79,0.54-3.01,0.86-3.68,0.94c-0.67,0.18-1.14,0.47-1.43,0.88c-0.29,0.4-0.4,0.83-0.31,1.28
	c0.08,0.45,0.31,0.86,0.68,1.21c0.37,0.36,0.89,0.54,1.56,0.54h65.33c0.66,0,1.18-0.18,1.56-0.54c0.37-0.36,0.6-0.76,0.69-1.21
	c0.08-0.45-0.02-0.88-0.31-1.28c-0.29-0.4-0.77-0.7-1.43-0.88c-0.67-0.09-1.89-0.4-3.68-0.94c-1.79-0.54-3.61-1.46-5.49-2.76
	c-1.87-1.3-3.53-3.08-4.99-5.33c-1.46-2.25-2.18-5.21-2.18-8.9v-29.12c0-1.8,0.25-3.17,0.75-4.11c0.5-0.94,1.5-1.42,2.99-1.42
	c1.16,0,2.2,0.4,3.12,1.21c0.91,0.81,2.2,2.16,3.86,4.04c0.58,0.63,1.58,1.84,2.99,3.64c1.41,1.8,3.03,3.87,4.86,6.2
	c1.83,2.34,3.72,4.81,5.67,7.42c1.95,2.61,3.78,5.06,5.49,7.35c1.7,2.29,3.16,4.27,4.36,5.93c1.2,1.66,1.93,2.76,2.18,3.3
	c1,2.16,1.39,4,1.18,5.53c-0.21,1.53-0.77,2.81-1.68,3.84c-0.92,1.03-2.04,1.89-3.37,2.56c-1.33,0.67-2.62,1.19-3.86,1.55
	c-1.25,0.45-1.83,1.21-1.75,2.29c0.08,1.08,0.83,1.62,2.24,1.62h67.82c1.41,0,2.14-0.52,2.18-1.55c0.04-1.03-0.52-1.87-1.68-2.5
	C543.61,228.32,542.68,227.78,541.3,226.97 M328.9,224.41c-2.95-2.97-5.42-7.03-7.42-12.2c-1.99-5.17-3.47-11.21-4.43-18.13
	c-0.96-6.92-1.43-14.29-1.43-22.11c0-7.82,0.48-15.19,1.43-22.11c0.95-6.92,2.43-12.96,4.43-18.13c1.99-5.17,4.47-9.24,7.42-12.2
	c2.95-2.97,6.42-4.45,10.41-4.45c3.99,0,7.46,1.48,10.41,4.45c2.95,2.97,5.4,7.04,7.36,12.2c1.95,5.17,3.43,11.21,4.43,18.13
	c1,6.92,1.5,14.29,1.5,22.11c0,7.82-0.5,15.19-1.5,22.11c-1,6.92-2.47,12.97-4.43,18.13c-1.95,5.17-4.41,9.24-7.36,12.2
	c-2.95,2.97-6.42,4.45-10.41,4.45C335.32,228.86,331.85,227.38,328.9,224.41 M316.56,113.03c-7.44,3.42-13.9,8.07-19.39,13.96
	c-5.49,5.89-9.81,12.77-12.97,20.63c-3.16,7.87-4.74,16.2-4.74,25.01c0,8.9,1.45,17.19,4.36,24.88c2.91,7.69,6.94,14.38,12.09,20.09
	c5.15,5.71,11.32,10.2,18.51,13.48c7.19,3.28,15.06,4.92,23.62,4.92c8.56,0,16.56-1.71,24-5.12c7.44-3.42,13.9-8.07,19.39-13.96
	c5.49-5.89,9.81-12.74,12.97-20.56c3.16-7.82,4.74-16.18,4.74-25.08c0-8.81-1.45-17.08-4.36-24.81
	c-2.91-7.73-6.94-14.45-12.09-20.16c-5.15-5.71-11.33-10.2-18.51-13.48c-7.19-3.28-15.07-4.92-23.62-4.92
	C331.99,107.91,323.99,109.62,316.56,113.03 M205.55,224.41c-2.95-2.97-5.42-7.03-7.42-12.2c-2-5.17-3.47-11.21-4.43-18.13
	c-0.96-6.92-1.43-14.29-1.43-22.11c0-7.82,0.48-15.19,1.43-22.11c0.95-6.92,2.43-12.96,4.43-18.13c1.99-5.17,4.47-9.24,7.42-12.2
	c2.95-2.97,6.42-4.45,10.41-4.45c3.99,0,7.46,1.48,10.41,4.45c2.95,2.97,5.4,7.04,7.36,12.2c1.95,5.17,3.43,11.21,4.43,18.13
	c1,6.92,1.5,14.29,1.5,22.11c0,7.82-0.5,15.19-1.5,22.11c-1,6.92-2.47,12.97-4.43,18.13c-1.95,5.17-4.41,9.24-7.36,12.2
	c-2.95,2.97-6.42,4.45-10.41,4.45C211.97,228.86,208.5,227.38,205.55,224.41 M193.21,113.03c-7.44,3.42-13.9,8.07-19.39,13.96
	c-5.49,5.89-9.81,12.77-12.96,20.63c-3.16,7.87-4.74,16.2-4.74,25.01c0,8.9,1.45,17.19,4.36,24.88c2.91,7.69,6.94,14.38,12.09,20.09
	c5.15,5.71,11.32,10.2,18.51,13.48c7.19,3.28,15.06,4.92,23.62,4.92c8.56,0,16.56-1.71,24-5.12c7.44-3.42,13.9-8.07,19.39-13.96
	c5.49-5.89,9.81-12.74,12.97-20.56c3.16-7.82,4.74-16.18,4.74-25.08c0-8.81-1.46-17.08-4.36-24.81
	c-2.91-7.73-6.94-14.45-12.09-20.16c-5.15-5.71-11.33-10.2-18.51-13.48c-7.19-3.28-15.07-4.92-23.62-4.92
	C208.65,107.91,200.65,109.62,193.21,113.03 M147.88,194.41c-0.79,2.02-1.93,4.29-3.43,6.81c-1.5,2.52-3.37,5.17-5.61,7.96
	c-2.24,2.79-4.97,5.3-8.17,7.55c-3.2,2.25-6.9,4.11-11.1,5.6c-4.2,1.48-9,2.23-14.4,2.23c-4.49,0-8.12-0.11-10.91-0.34
	c-2.79-0.22-4.95-0.67-6.48-1.35c-1.54-0.68-2.58-1.66-3.12-2.97c-0.54-1.3-0.81-3.03-0.81-5.19V75.68c0-4.13,0.83-7.53,2.49-10.18
	c1.66-2.65,3.59-4.72,5.8-6.2c2.2-1.48,4.38-2.54,6.54-3.17c2.16-0.63,3.74-1.03,4.74-1.21c0.75-0.09,1.31-0.38,1.68-0.88
	c0.37-0.49,0.54-0.99,0.5-1.48c-0.04-0.49-0.27-0.94-0.69-1.35c-0.42-0.4-1.04-0.61-1.87-0.61H23.52c-0.83,0-1.45,0.2-1.87,0.61
	c-0.42,0.4-0.65,0.86-0.69,1.35c-0.04,0.49,0.12,0.99,0.5,1.48c0.37,0.49,0.93,0.79,1.68,0.88c1,0.18,2.57,0.59,4.74,1.21
	c2.16,0.63,4.34,1.68,6.54,3.17c2.2,1.48,4.13,3.55,5.8,6.2c1.66,2.65,2.49,6.05,2.49,10.18v131.87c0,4.23-0.83,7.64-2.49,10.25
	c-1.66,2.61-3.6,4.67-5.8,6.2c-2.2,1.53-4.39,2.58-6.54,3.17c-2.16,0.59-3.74,0.97-4.74,1.15c-0.75,0.18-1.31,0.49-1.68,0.94
	c-0.37,0.45-0.54,0.92-0.5,1.42c0.04,0.49,0.27,0.94,0.69,1.35c0.42,0.4,1.04,0.61,1.87,0.61h127.41c1.75,0,2.62-0.85,2.62-2.56
	v-39.51c0-1.44-0.54-2.23-1.62-2.36c-1.08-0.13-1.87,0.52-2.37,1.96C149.23,190.97,148.67,192.38,147.88,194.41"/>
<path class="st0" d="M567.03,275.03h17.18v-3.4h-13.53v-25.27h-3.66V275.03z M556.97,274.32c1.62-0.75,2.95-1.79,4-3.1
	c1.05-1.32,1.82-2.88,2.32-4.68c0.49-1.8,0.74-3.75,0.74-5.85c0-2.1-0.25-4.05-0.74-5.85c-0.5-1.8-1.27-3.36-2.32-4.68
	c-1.05-1.32-2.38-2.35-4-3.1c-1.62-0.75-3.54-1.13-5.79-1.13c-2.24,0-4.17,0.38-5.78,1.13c-1.62,0.75-2.95,1.79-4,3.1
	c-1.05,1.32-1.82,2.88-2.32,4.68c-0.5,1.8-0.74,3.75-0.74,5.85c0,2.1,0.25,4.05,0.74,5.85c0.5,1.8,1.27,3.36,2.32,4.68
	c1.05,1.32,2.38,2.35,4,3.1c1.62,0.75,3.54,1.13,5.78,1.13C553.43,275.45,555.36,275.08,556.97,274.32 M544.28,269.35
	c-1.52-2.03-2.27-4.91-2.27-8.66c0-3.74,0.76-6.63,2.27-8.66c1.52-2.03,3.82-3.04,6.91-3.04s5.4,1.01,6.91,3.04
	c1.52,2.03,2.28,4.91,2.28,8.66c0,3.74-0.76,6.63-2.28,8.66c-1.52,2.03-3.82,3.04-6.91,3.04S545.79,271.38,544.28,269.35
	 M529.65,274.32c1.62-0.75,2.95-1.79,4-3.1c1.05-1.32,1.82-2.88,2.32-4.68c0.49-1.8,0.74-3.75,0.74-5.85c0-2.1-0.25-4.05-0.74-5.85
	c-0.5-1.8-1.27-3.36-2.32-4.68c-1.05-1.32-2.38-2.35-4-3.1c-1.62-0.75-3.54-1.13-5.79-1.13c-2.24,0-4.17,0.38-5.78,1.13
	c-1.62,0.75-2.95,1.79-4,3.1c-1.05,1.32-1.82,2.88-2.32,4.68c-0.5,1.8-0.74,3.75-0.74,5.85c0,2.1,0.25,4.05,0.74,5.85
	c0.5,1.8,1.27,3.36,2.32,4.68c1.05,1.32,2.38,2.35,4,3.1c1.62,0.75,3.54,1.13,5.78,1.13C526.11,275.45,528.04,275.08,529.65,274.32
	 M516.96,269.35c-1.52-2.03-2.27-4.91-2.27-8.66c0-3.74,0.76-6.63,2.27-8.66c1.52-2.03,3.82-3.04,6.91-3.04
	c3.09,0,5.4,1.01,6.91,3.04c1.52,2.03,2.28,4.91,2.28,8.66c0,3.74-0.76,6.63-2.28,8.66c-1.52,2.03-3.82,3.04-6.91,3.04
	C520.78,272.39,518.47,271.38,516.96,269.35 M504.3,259.5c-1.08,1.02-2.57,1.53-4.47,1.53h-5.49v-11.27h5.74
	c1.9,0,3.35,0.5,4.34,1.49c0.99,0.99,1.49,2.34,1.49,4.04C505.91,257.08,505.37,258.48,504.3,259.5 M508.93,251.8
	c-0.42-1.08-1.04-2.02-1.85-2.83c-0.81-0.81-1.8-1.45-2.98-1.91s-2.52-0.7-4.02-0.7h-9.4v28.67h3.66v-10.59h5.49
	c1.5,0,2.86-0.23,4.06-0.7c1.21-0.47,2.23-1.12,3.06-1.96c0.84-0.84,1.48-1.81,1.94-2.91c0.45-1.11,0.68-2.3,0.68-3.57
	C509.57,254.04,509.36,252.88,508.93,251.8 M482.49,258.88c-1.08,0.98-2.57,1.47-4.47,1.47h-6.34v-10.59h6.59
	c1.9,0,3.35,0.47,4.34,1.4c0.99,0.94,1.49,2.2,1.49,3.79C484.1,256.6,483.56,257.91,482.49,258.88 M487.12,251.59
	c-0.42-1.05-1.04-1.96-1.85-2.72c-0.81-0.77-1.8-1.38-2.98-1.83c-1.18-0.45-2.52-0.68-4.02-0.68h-10.25v28.67h3.66v-11.27h5.78
	l6.55,11.27h4l-6.81-11.65c1.02-0.28,1.93-0.7,2.74-1.23c0.81-0.54,1.5-1.18,2.06-1.91c0.57-0.74,1-1.55,1.3-2.45
	c0.3-0.89,0.45-1.83,0.45-2.83C487.76,253.76,487.55,252.64,487.12,251.59 M447.58,275.03h17.78v-3.4h-14.12v-9.74h13.02v-3.4
	h-13.02v-8.76h13.87v-3.4h-17.52V275.03z M435.75,263.71l-2.25,7.36h-0.09l-2.26-7.36l-6.21-17.35h-3.79l10.42,28.67h3.74
	l10.42-28.67h-3.79L435.75,263.71z M419.27,246.36h-3.66v28.67h3.66V246.36z M396.29,275.03h17.18v-3.4h-13.53v-25.27h-3.66V275.03z
	 M384.61,256.72h-2.47l-4.78,8.5h-0.05l-4.78-8.5h-2.47l6.11,10.51v7.8h2.34v-7.8L384.61,256.72z M359.42,264.54v-5.73h4.51
	c1.09,0,1.95,0.23,2.58,0.69c0.63,0.46,0.95,1.14,0.95,2.02c0,0.49-0.09,0.92-0.27,1.3c-0.18,0.38-0.43,0.7-0.75,0.95
	c-0.32,0.25-0.69,0.44-1.11,0.57c-0.42,0.13-0.88,0.19-1.37,0.19H359.42z M359.42,272.94v-6.33h4.48c0.65,0,1.24,0.05,1.77,0.16
	c0.53,0.11,0.98,0.28,1.36,0.53c0.38,0.24,0.68,0.56,0.88,0.95c0.21,0.39,0.31,0.87,0.31,1.45c0,1.03-0.38,1.83-1.13,2.39
	c-0.75,0.56-1.81,0.84-3.16,0.84H359.42z M367.91,264.94c0.32-0.21,0.61-0.47,0.88-0.79c0.27-0.32,0.5-0.68,0.68-1.1
	c0.18-0.42,0.27-0.89,0.27-1.41c0-0.71-0.12-1.36-0.37-1.97c-0.24-0.61-0.61-1.13-1.1-1.56c-0.49-0.43-1.1-0.77-1.82-1.02
	c-0.73-0.24-1.57-0.37-2.53-0.37h-6.79v18.31h6.82c1.1,0,2.07-0.13,2.89-0.39c0.82-0.26,1.51-0.63,2.05-1.1
	c0.54-0.47,0.95-1.03,1.21-1.68c0.26-0.65,0.39-1.37,0.39-2.15c0-0.65-0.1-1.23-0.31-1.72c-0.21-0.5-0.48-0.92-0.82-1.28
	c-0.33-0.35-0.71-0.64-1.13-0.86c-0.42-0.22-0.83-0.36-1.25-0.43C367.29,265.3,367.59,265.14,367.91,264.94"/>
</svg>
